<?xml version="1.0" encoding="utf-8"?>
<svg xmlns="http://www.w3.org/2000/svg"  viewBox="146.347 246.95 728.405 498.508" version="1.1">

  <path d="M 786.040 449.121 C 785.470 450.429, 783.929 454.425, 782.614 458 L 780.224 464.500 769.978 465.500 L 759.731 466.500 767.616 472.591 C 772.239 476.163, 775.345 479.265, 775.124 480.091 C 771.961 491.954, 770.973 496.307, 771.356 496.690 C 771.610 496.944, 775.281 494.858, 779.514 492.055 L 787.210 486.958 794.142 491.524 C 803.329 497.577, 804.449 497.983, 803.460 494.901 C 802.225 491.054, 799.071 478.589, 799.295 478.442 C 799.408 478.368, 802.959 475.584, 807.187 472.256 L 814.874 466.204 804.755 465.352 L 794.637 464.500 791.377 456.142 C 789.584 451.545, 787.883 447.550, 787.596 447.263 C 787.309 446.976, 786.609 447.812, 786.040 449.121" stroke="none" fill-rule="evenodd" style="fill: rgb(0, 61, 165);" id="object-0"/>
  <path d="M 722.552 385 C 722.232 385.825, 719.773 392.125, 717.087 399 L 712.205 411.500 704.852 412.224 C 700.809 412.622, 693.900 413.297, 689.500 413.724 L 681.500 414.500 690.581 421.543 C 695.575 425.417, 700.950 429.525, 702.524 430.672 L 705.386 432.756 701.632 446.484 C 699.567 454.034, 698.108 460.441, 698.389 460.722 C 698.670 461.004, 704.113 457.806, 710.484 453.617 C 716.855 449.428, 722.479 446, 722.983 446 C 723.487 446, 729.134 449.413, 735.532 453.584 C 741.930 457.756, 747.379 460.954, 747.642 460.691 C 747.905 460.428, 746.482 454.037, 744.479 446.488 C 742.476 438.939, 741.211 432.440, 741.669 432.046 C 742.126 431.651, 747.565 427.582, 753.756 423.004 C 759.947 418.425, 764.897 414.569, 764.756 414.436 C 764.615 414.302, 757.675 413.636, 749.334 412.955 L 734.169 411.719 729.472 399.109 C 723.761 383.779, 723.351 382.943, 722.552 385" stroke="none" fill-rule="evenodd" style="fill: rgb(239, 51, 64);" id="object-1"/>
  <path d="M 722 283.312 C 722 284.034, 721.100 286.487, 720 288.764 C 718.900 291.041, 718 293.381, 718 293.965 C 718 294.549, 717.480 296.034, 716.844 297.264 C 714.418 301.956, 714 303.018, 714 304.486 C 714 305.319, 713.100 306.900, 712 308 C 710.354 309.646, 708.630 310.008, 702.250 310.044 C 697.987 310.068, 691.874 310.634, 688.664 311.302 L 682.828 312.516 685.664 315.021 C 688.082 317.157, 705.179 330.356, 705.668 330.465 C 705.943 330.527, 703.304 340.056, 701.227 346.500 C 698.353 355.419, 697.841 358, 698.947 358 C 699.858 358, 711.141 351.173, 713.563 349.156 C 714.148 348.669, 715.723 347.692, 717.063 346.986 C 718.403 346.279, 719.765 345.295, 720.090 344.800 C 721.518 342.621, 725.196 344.082, 735.217 350.808 C 741.111 354.763, 746.451 358, 747.083 358 C 748.364 358, 748.337 357.845, 744.597 343.622 C 741.494 331.817, 741.389 329.398, 743.922 328.042 C 744.979 327.476, 746.442 326.433, 747.172 325.724 C 747.902 325.014, 750.075 323.346, 752 322.015 C 753.925 320.685, 755.725 319.326, 756 318.995 C 756.275 318.665, 758.243 317.085, 760.373 315.485 L 764.245 312.576 761.373 311.762 C 759.793 311.314, 753.384 310.585, 747.131 310.141 C 734.540 309.249, 733.662 308.756, 731.094 301.136 C 730.419 299.136, 729.448 296.488, 728.934 295.250 C 727.485 291.759, 726.311 288.791, 724.980 285.250 C 723.754 281.992, 722 280.851, 722 283.312" stroke="none" fill-rule="evenodd" style="fill: rgb(255, 209, 0);" id="object-2"/>
  <path d="M 647.163 344.75 C 646.529 346.813 644.962 350.75 643.683 353.5 L 641.356 358.5 L 631.448 359.5 L 621.54 360.5 L 629.163 366.796 L 636.786 373.092 L 634.393 381.789 C 633.077 386.572 632 390.806 632 391.197 C 632 391.589 635.816 389.628 640.479 386.841 L 648.959 381.774 L 657.094 386.939 C 661.569 389.779 665.361 391.968 665.522 391.802 C 665.682 391.636 664.717 387.276 663.377 382.113 C 662.037 376.95 661.066 372.64 661.22 372.535 C 661.374 372.43 664.844 369.679 668.931 366.422 L 676.363 360.5 L 668.431 359.697 C 655.791 358.418 656.673 359 653.007 349.519 C 651.196 344.833 649.399 341 649.015 341 C 648.631 341 647.798 342.688 647.163 344.75" stroke="none" fill-rule="evenodd" fill="#d8d8d8" id="object-3"/>
  <path d="M 472.558 261.492 C 467.255 263.381 464.085 265.862 460.5 270.928 L 457.5 275.167 L 457.187 299.405 L 456.874 323.644 L 436.187 323.671 C 422.12 323.69 411.981 324.23 404.503 325.36 C 327.532 336.984 266.425 392.428 247.421 467.886 C 245.564 475.257 243.923 481.363 243.773 481.455 C 243.623 481.546 224.608 486.319 201.518 492.061 C 173.044 499.141 158.947 503.084 157.703 504.315 C 155.925 506.076 155.911 508.094 157.635 514.228 C 158.32 516.664 161.318 517.261 199 522.459 C 217.425 525 234.747 527.403 237.494 527.798 L 242.488 528.517 L 244.135 538.008 C 248.631 563.931 256.46 583.863 270.131 604.194 C 287.993 630.76 310.592 650.412 339.5 664.517 C 362.453 675.717 384.033 681.784 409.219 684.118 C 420.743 685.186 446.888 684.75 453.135 683.386 L 455.769 682.811 L 456.187 700.155 C 456.661 719.821 457.488 722.594 464.871 729.264 C 475.174 738.573 491.889 735.815 499.474 723.555 L 501.387 718.529 L 502.812 693.32 L 503.125 667.977 L 507.156 665.92 C 509.373 664.789 514.078 662.094 517.611 659.932 C 521.144 657.769 524.252 656 524.518 656 C 524.783 656 525 658.714 525 662.032 C 525 671.816 528.357 677.753 536.648 682.63 C 546.007 688.136 557.856 688.217 565.534 680.316 C 573.643 671.972 573.073 673.675 573.759 510.885 L 573.5 357.343 L 570.471 352.421 C 566.807 346.47 559.564 341.357 553.508 340.449 C 543.593 338.962 532.235 344.819 527.88 353.665 L 525.5 358.5 L 525.232 486.834 L 524.963 615.167 L 528.232 614.457 C 534.427 613.112 547.321 607.928 557.647 602.631 C 563.341 599.71 568 597.536 568 597.799 C 568 599.444 555.521 613.227 548.204 619.665 C 496.7 664.975 426.186 674.35 365.5 643.957 C 349.332 635.86 336.705 626.721 323.435 613.513 C 273.818 564.129 262.213 490.421 294.267 428.267 C 307.268 403.06 332.006 377.979 357.966 363.687 C 379.939 351.59 408.736 344.046 433 344.031 L 442.5 344.024 L 434.974 347.31 C 408.707 358.78 384.845 379.91 369.411 405.369 C 354.409 430.113 348.01 455.626 349.312 485.5 C 350.501 512.789 357.815 535.474 372.583 557.668 C 382.801 573.025 402.973 592.2 416.924 599.818 L 423 603.135 L 423.044 496.318 C 423.091 380.949 422.869 385.794 428.449 378.477 C 431.644 374.289 434.686 372.153 437.994 371.776 C 439.916 371.557 440.779 372.248 442.149 375.104 C 443.752 378.445 443.901 387.239 444.189 495.474 L 444.5 612.24 L 447 613.192 C 458.088 617.419 481.78 620.588 494.415 619.536 L 503.022 618.819 L 502.761 447.659 L 502.5 276.5 L 499.848 272 C 494.076 262.207 482.77 257.854 472.558 261.492 M 616.326 410.002 C 608.545 411.62 602.401 416.407 598.362 424 C 596.595 427.322 596.485 431.858 596.199 513 C 596.033 560.025 596.176 600.431 596.516 602.792 C 597.85 612.044 608.127 618.98 620.5 618.98 C 629.333 618.98 636.101 616.036 641.343 609.913 C 648.277 601.811 648.076 604.904 647.772 511.417 C 647.5 427.602 647.497 427.495 645.342 423.5 C 639.867 413.354 627.615 407.654 616.326 410.002 M 680.881 473.793 C 677.544 475.537 674.4 478.2 672.517 480.878 L 669.5 485.17 L 669.5 523.835 C 669.5 549.116 669.846 562.411 670.5 562.244 C 671.05 562.103 678.025 559.773 686 557.068 C 706.147 550.233 730.48 545.665 763.531 542.513 C 783.955 540.565 832.528 538.028 849.693 538.012 C 862.186 538.001 862.969 537.882 864.443 535.777 C 866.434 532.936 866.447 527.589 864.468 525.611 C 862.481 523.623 861.736 523.521 827 520.446 C 785.748 516.794 748.242 512.414 743.447 510.687 C 735.041 507.66 727.286 503.034 723.213 498.616 C 720.896 496.102 719 493.342 719 492.483 C 719 489.69 715.011 483.011 710.87 478.87 C 702.47 470.47 690.969 468.523 680.881 473.793" stroke="none" fill-rule="evenodd" style="fill: rgb(0, 150, 57);" id="object-4"/>
</svg>
